<?xml version="1.0" encoding="utf-8"?>
<!-- Generator: Adobe Illustrator 27.5.0, SVG Export Plug-In . SVG Version: 6.00 Build 0)  -->
<svg version="1.1" xmlns="http://www.w3.org/2000/svg" xmlns:xlink="http://www.w3.org/1999/xlink" x="0px" y="0px"
	 viewBox="0 0 5000 5000" xml:space="preserve">
<g id="ap_2">
	<g>
		
			<circle style="fill:none;stroke:#53eafd;stroke-width:7;stroke-linecap:round;stroke-linejoin:round;stroke-miterlimit:10;" cx="2500" cy="2500" r="2038"/>
		<g>
			<g>
				
					<path style="fill:none;stroke:#53eafd;stroke-width:7;stroke-linecap:round;stroke-linejoin:round;stroke-miterlimit:10;" d="
					M1836.571,2815.642c-166.719-18.336-316.735,101.95-335.073,268.668l-72.561,1149.843
					c180.618,111.792,379.994,196.153,592.328,247.271l83.976-1330.71C2123.579,2983.995,2003.291,2833.977,1836.571,2815.642z"/>
				<g>
					
						<line style="fill:none;stroke:#53eafd;stroke-width:7;stroke-linecap:round;stroke-linejoin:round;stroke-miterlimit:10;" x1="1961.738" y1="2858.307" x2="1477.628" y2="3462.585"/>
					
						<line style="fill:none;stroke:#53eafd;stroke-width:7;stroke-linecap:round;stroke-linejoin:round;stroke-miterlimit:10;" x1="2101.781" y1="3205.556" x2="1441.866" y2="4029.277"/>
					
						<line style="fill:none;stroke:#53eafd;stroke-width:7;stroke-linecap:round;stroke-linejoin:round;stroke-miterlimit:10;" x1="2066.019" y1="3772.248" x2="1614.357" y2="4336.023"/>
					
						<line style="fill:none;stroke:#53eafd;stroke-width:7;stroke-linecap:round;stroke-linejoin:round;stroke-miterlimit:10;" x1="1879.564" y1="4441.837" x2="1450.515" y2="3906.287"/>
					
						<line style="fill:none;stroke:#53eafd;stroke-width:7;stroke-linecap:round;stroke-linejoin:round;stroke-miterlimit:10;" x1="2043.774" y1="4124.753" x2="1480.231" y2="3421.327"/>
					
						<line style="fill:none;stroke:#53eafd;stroke-width:7;stroke-linecap:round;stroke-linejoin:round;stroke-miterlimit:10;" x1="2074.313" y1="3640.82" x2="1537.451" y2="2970.697"/>
					
						<line style="fill:none;stroke:#53eafd;stroke-width:7;stroke-linecap:round;stroke-linejoin:round;stroke-miterlimit:10;" x1="2104.852" y1="3156.886" x2="1829.989" y2="2813.795"/>
				</g>
			</g>
			<g>
				
					<path style="fill:none;stroke:#53eafd;stroke-width:7;stroke-linecap:round;stroke-linejoin:round;stroke-miterlimit:10;" d="
					M2692.184,2904.448h-180.272c-81.46,0-147.496-66.036-147.496-147.496v-652.259c0-81.46,66.036-147.496,147.496-147.496h180.272
					c81.46,0,147.496,66.036,147.496,147.496v652.259C2839.68,2838.412,2773.644,2904.448,2692.184,2904.448z"/>
				<g>
					
						<path style="fill:none;stroke:#53eafd;stroke-width:7;stroke-linecap:round;stroke-linejoin:round;stroke-miterlimit:10;" d="
						M2313.613,2504.571c-180.117,0-326.13-146.013-326.13-326.129v-627.676c0-235.327,190.771-426.098,426.098-426.098
						c235.329,0,426.099,190.771,426.099,426.098v427.739C2839.68,2269.043,2604.152,2504.571,2313.613,2504.571z"/>
					<g>
						
							<path style="fill:#0e7490;stroke:#53eafd;stroke-width:7;stroke-linecap:round;stroke-linejoin:round;stroke-miterlimit:10;" d="
							M2778.904,2009.158l-53.742,159.325c-15.368,22.525-40.872,36.001-68.14,36.001h-133.013
							c-21.112,0-41.419-8.096-56.743-22.619l-19.969-18.929c-30.074-28.503-69.93-44.391-111.366-44.391h-126.328
							c-33.993,0-67.126,10.701-94.698,30.587l-71.928,51.876c-3.132,2.259-6.896,3.475-10.758,3.475
							c-8.976,0-16.641-6.479-18.135-15.329l-26.602-157.533v214.345c0,180.116,146.012,326.129,326.13,326.129
							c290.54,0,526.067-235.528,526.067-526.067v-14.407L2778.904,2009.158z M2409.868,2307.429h-68.746
							c-28.244,0-52.109-3.652-59.83-23.912c-3.703-9.716-13.165-16.029-23.563-16.029h-1.344c-10.398,0-19.861,6.313-23.563,16.029
							c-7.72,20.26-31.585,23.912-59.83,23.912h-48.234c-20.992,0-38.009-17.017-38.009-38.009v-6.698
							c0-27.049,13.542-52.302,36.073-67.269l19.821-13.167c22.783-15.135,49.526-23.208,76.877-23.208h92.987
							c35.21,0,69.107,13.37,94.837,37.406l14.901,13.92c16.364,15.286,25.648,36.681,25.632,59.075
							C2447.861,2290.438,2430.825,2307.429,2409.868,2307.429z"/>
						
							<path style="fill:#0e7490;stroke:#53eafd;stroke-width:7;stroke-linecap:round;stroke-linejoin:round;stroke-miterlimit:10;" d="
							M1987.482,1734.28c0,0-40.87-179.194-40.87-280.677c0,0-74.083-177.113-77.987-238.83c0,0,103.678-57.813,157.225-50.007
							v-38.859c0,0,371.137-125.075,604.615-19.688c233.477,105.386,288.738,222.483,288.738,222.483l-20.132,70.435l20.132,50.564
							v507.99l-79.525,285.63l-3.148-227.655l-84.682-167.395c0,0-11.656-242.441-23.942-285.377
							c-12.285-42.935-74.737-93.677-74.737-93.677l34.906-31.225c0,0-144.114-35.129-218.316-19.516
							c-74.202,15.613-443.909,15.613-443.909,15.613S1987.482,1566.088,1987.482,1734.28z"/>
					</g>
					<g>
						<g>
							
								<path style="fill:none;stroke:#53eafd;stroke-width:7;stroke-linecap:round;stroke-linejoin:round;stroke-miterlimit:10;" d="
								M2364.416,1853.222c0,0,58.998-101.608,216.327-29.499"/>
							<path style="fill:#0e7490;" d="M2498.801,1833.01c0,26.248-15.408,28.772-34.416,28.772
								c-19.007,0-34.416-2.524-34.416-28.772c0-35.142,15.408-35.142,34.416-35.142
								C2483.393,1797.867,2498.801,1798.295,2498.801,1833.01z"/>
						</g>
						<g>
							
								<path style="fill:none;stroke:#53eafd;stroke-width:7;stroke-linecap:round;stroke-linejoin:round;stroke-miterlimit:10;" d="
								M2189.06,1853.222c0,0-58.998-101.608-216.327-29.499"/>
							<path style="fill:#0e7490;" d="M2054.675,1833.01c0,26.248,15.408,28.772,34.416,28.772c19.007,0,34.416-2.524,34.416-28.772
								c0-35.142-15.408-35.142-34.416-35.142C2070.083,1797.867,2054.675,1798.295,2054.675,1833.01z"/>
						</g>
						<path style="fill:none;stroke:#53eafd;stroke-width:7;stroke-linecap:round;stroke-linejoin:round;stroke-miterlimit:10;" d="
							M2256.252,1788.944c0,0-47.814,168.754-63.977,271.778c-2.047,13.043,7.198,25.198,20.319,26.667
							c24.036,2.69,98.285-0.54,98.285-0.54"/>
						<path style="fill:none;stroke:#53eafd;stroke-width:7;stroke-linecap:round;stroke-linejoin:round;stroke-miterlimit:10;" d="
							M2169.212,2213.222c112.206,67.192,208.679,0,208.679,0"/>
						
							<path style="fill:#0e7490;stroke:#53eafd;stroke-width:7;stroke-linecap:round;stroke-linejoin:round;stroke-miterlimit:10;" d="
							M2511.547,1733.587h-94.324c-12.873,0-23.308-10.435-23.308-23.308c0-12.873,10.435-23.308,23.308-23.308h94.324
							c12.873,0,23.308,10.435,23.308,23.308C2534.855,1723.152,2524.42,1733.587,2511.547,1733.587z"/>
						
							<path style="fill:#0e7490;stroke:#53eafd;stroke-width:7;stroke-linecap:round;stroke-linejoin:round;stroke-miterlimit:10;" d="
							M2145.904,1733.587h-94.324c-12.872,0-23.308-10.435-23.308-23.308c0-12.873,10.436-23.308,23.308-23.308h94.324
							c12.873,0,23.308,10.435,23.308,23.308C2169.212,1723.152,2158.776,1733.587,2145.904,1733.587z"/>
					</g>
					<g>
						<g>
							<path style="fill:none;" d="M2941.919,2006.353l-91.113,43.263c-74.163,35.215-159.715-18.869-159.715-100.968
								c0-43.156,24.845-82.457,63.83-100.968l91.113-43.263c74.163-35.214,159.715,18.869,159.715,100.968
								C3005.749,1948.541,2980.904,1987.842,2941.919,2006.353z"/>
							
								<path style="fill:none;stroke:#53eafd;stroke-width:7;stroke-linecap:round;stroke-linejoin:round;stroke-miterlimit:10;" d="
								M2730.958,1863.071c7.197-6.048,15.225-11.242,23.963-15.391l91.113-43.263c74.163-35.214,159.715,18.869,159.715,100.968
								c0,43.157-24.845,82.457-63.83,100.968l-91.113,43.263c-9.35,4.44-18.881,7.46-28.398,9.184"/>
						</g>
						<g>
							
								<path style="fill:none;stroke:#53eafd;stroke-width:7;stroke-linecap:round;stroke-linejoin:round;stroke-miterlimit:10;" d="
								M2793.73,1988.073c-10.896-13.499-17.419-30.673-17.419-49.371c0-43.445,35.219-78.664,78.664-78.664
								c28.632,0,53.691,15.297,67.451,38.164"/>
							
								<path style="fill:none;stroke:#53eafd;stroke-width:7;stroke-linecap:round;stroke-linejoin:round;stroke-miterlimit:10;" d="
								M2778.904,1925.75c10.166-4.794,18.927-7.474,30.912-7.474c27.153,0,51.093,13.757,65.229,34.682"/>
						</g>
					</g>
				</g>
			</g>
			<g>
				<g>
					<g>
						<polygon style="fill:none;" points="3059.005,3295.425 2127.199,3295.425 2127.199,2813.795 2364.416,2716.627 
							2839.68,2716.627 3059.005,2813.795 						"/>
						
							<polyline style="fill:none;stroke:#53eafd;stroke-width:7;stroke-linecap:round;stroke-linejoin:round;stroke-miterlimit:10;" points="
							2839.68,2716.627 3059.005,2813.795 3059.005,3295.425 2127.199,3295.425 2127.199,2813.795 2364.416,2716.627 						"/>
					</g>
					<g>
						<g>
							<g>
								<path style="fill:none;" d="M3517.008,2794.344l-677.329-77.717l-391.802,389.784l-85.407-389.784l-585.386,85.885
									c-103.603,15.2-180.284,104.239-179.956,208.953l26.795,1329.114C1889.323,4467.13,2186.381,4538,2500,4538
									c452.087,0,869.772-147.231,1207.781-396.321l44.302-1065.082C3757.926,2936.072,3656.271,2814.013,3517.008,2794.344z"/>
								<g>
									
										<path style="fill:none;stroke:#53eafd;stroke-width:7;stroke-linecap:round;stroke-linejoin:round;stroke-miterlimit:10;" d="
										M1606.063,3454.679l17.86,885.9C1889.323,4467.13,2186.381,4538,2500,4538c452.087,0,869.772-147.231,1207.781-396.321
										l44.302-1065.082c5.843-140.524-95.812-262.584-235.076-282.252l-677.329-77.717l-391.802,389.784l-85.407-389.784
										l-585.386,85.885c-31.352,4.6-60.239,15.962-85.271,32.473c0,0-41.781,17.423-63.93,34.685"/>
									
										<path style="fill:none;stroke:#53eafd;stroke-width:7;stroke-linecap:round;stroke-linejoin:round;stroke-miterlimit:10;" d="
										M1733.401,2813.795c0,0-117.165,83.375-117.165,259.573"/>
								</g>
							</g>
							<g>
								
									<line style="fill:none;stroke:#53eafd;stroke-width:7;stroke-linecap:round;stroke-linejoin:round;stroke-miterlimit:10;" x1="2036.986" y1="2764.381" x2="1569.363" y2="3348.079"/>
								
									<line style="fill:none;stroke:#53eafd;stroke-width:7;stroke-linecap:round;stroke-linejoin:round;stroke-miterlimit:10;" x1="2390.606" y1="2845.036" x2="1613.332" y2="3815.249"/>
								
									<line style="fill:none;stroke:#53eafd;stroke-width:7;stroke-linecap:round;stroke-linejoin:round;stroke-miterlimit:10;" x1="2905.652" y1="2724.197" x2="1623.599" y2="4324.487"/>
								
									<line style="fill:none;stroke:#53eafd;stroke-width:7;stroke-linecap:round;stroke-linejoin:round;stroke-miterlimit:10;" x1="3288.282" y1="2768.643" x2="1937.293" y2="4454.98"/>
								
									<line style="fill:none;stroke:#53eafd;stroke-width:7;stroke-linecap:round;stroke-linejoin:round;stroke-miterlimit:10;" x1="3643.752" y1="2846.99" x2="2297.02" y2="4528.013"/>
								
									<line style="fill:none;stroke:#53eafd;stroke-width:7;stroke-linecap:round;stroke-linejoin:round;stroke-miterlimit:10;" x1="3745.186" y1="3242.432" x2="2716.35" y2="4526.649"/>
								
									<line style="fill:none;stroke:#53eafd;stroke-width:7;stroke-linecap:round;stroke-linejoin:round;stroke-miterlimit:10;" x1="3722.281" y1="3793.075" x2="3234.884" y2="4401.457"/>
								
									<line style="fill:none;stroke:#53eafd;stroke-width:7;stroke-linecap:round;stroke-linejoin:round;stroke-miterlimit:10;" x1="1879.564" y1="4441.837" x2="1619.418" y2="4117.116"/>
								
									<line style="fill:none;stroke:#53eafd;stroke-width:7;stroke-linecap:round;stroke-linejoin:round;stroke-miterlimit:10;" x1="2371.642" y1="4534.007" x2="1608.622" y2="3581.586"/>
								
									<line style="fill:none;stroke:#53eafd;stroke-width:7;stroke-linecap:round;stroke-linejoin:round;stroke-miterlimit:10;" x1="2778.01" y1="4519.192" x2="1616.235" y2="3069.037"/>
								
									<line style="fill:none;stroke:#53eafd;stroke-width:7;stroke-linecap:round;stroke-linejoin:round;stroke-miterlimit:10;" x1="3130.022" y1="4436.528" x2="1816.336" y2="2796.753"/>
								
									<line style="fill:none;stroke:#53eafd;stroke-width:7;stroke-linecap:round;stroke-linejoin:round;stroke-miterlimit:10;" x1="2434.785" y1="3046.663" x2="2190.584" y2="2741.846"/>
								
									<line style="fill:none;stroke:#53eafd;stroke-width:7;stroke-linecap:round;stroke-linejoin:round;stroke-miterlimit:10;" x1="3444.15" y1="4306.576" x2="2467.093" y2="3086.99"/>
								
									<line style="fill:none;stroke:#53eafd;stroke-width:7;stroke-linecap:round;stroke-linejoin:round;stroke-miterlimit:10;" x1="3708.891" y1="4114.98" x2="2699.969" y2="2855.618"/>
								
									<line style="fill:none;stroke:#53eafd;stroke-width:7;stroke-linecap:round;stroke-linejoin:round;stroke-miterlimit:10;" x1="3729.535" y1="3618.694" x2="3023.83" y2="2737.816"/>
								
									<line style="fill:none;stroke:#53eafd;stroke-width:7;stroke-linecap:round;stroke-linejoin:round;stroke-miterlimit:10;" x1="3750.178" y1="3122.408" x2="3484.352" y2="2790.598"/>
							</g>
						</g>
						<g>
							<g>
								
									<path style="fill:#0e7490;stroke:#53eafd;stroke-width:7;stroke-linecap:round;stroke-linejoin:round;stroke-miterlimit:10;" d="
									M2364.416,4323.888l-23.736,207.961c34.313,2.653,68.865,4.453,103.633,5.386l24.351-213.348V3189.443h-104.248V4323.888z"
									/>
								
									<polygon style="fill:#0e7490;stroke:#53eafd;stroke-width:7;stroke-linecap:round;stroke-linejoin:round;stroke-miterlimit:10;" points="
									2364.416,2649.166 2080.896,2737.868 2169.212,2882.688 2353.007,2917.083 2169.212,3003.372 2364.416,3312.321 
									2445.799,3096.927 2362.471,2716.627 								"/>
								
									<polygon style="fill:#0e7490;stroke:#53eafd;stroke-width:7;stroke-linecap:round;stroke-linejoin:round;stroke-miterlimit:10;" points="
									2364.416,3189.442 2839.68,2649.166 3200.204,2730.423 2919.204,2921.044 2692.184,2904.448 2826.975,3045.003 
									2429.969,3273.702 2364.416,3382.317 								"/>
							</g>
							<g>
								
									<path style="fill:#0e7490;stroke:#53eafd;stroke-width:7;stroke-linecap:round;stroke-linejoin:round;stroke-miterlimit:10;" d="
									M2200.985,3986.613l-219.849,109.511c-9.398,4.682-20.464,4.611-29.801-0.191l-212.403-109.22
									c-10.995-5.654-17.907-16.98-17.907-29.344v-211.382c0-18.223,14.773-32.997,32.997-32.997h432.251
									c18.224,0,32.997,14.773,32.997,32.997v211.091C2219.269,3969.593,2212.188,3981.032,2200.985,3986.613z"/>
								
									<ellipse style="fill:none;stroke:#53eafd;stroke-width:7;stroke-linecap:round;stroke-linejoin:round;stroke-miterlimit:10;" cx="1954.149" cy="3795.054" rx="31.467" ry="41.032"/>
							</g>
							<g>
								
									<path style="fill:#0e7490;stroke:#53eafd;stroke-width:7;stroke-linecap:round;stroke-linejoin:round;stroke-miterlimit:10;" d="
									M3134.519,3986.291l-244.561,110.991c-8.792,3.99-18.891,3.929-27.635-0.167l-236.308-110.71
									c-11.593-5.431-18.998-17.078-18.998-29.88v-210.539c0-18.223,14.773-32.997,32.997-32.997h480.869
									c18.223,0,32.997,14.773,32.997,32.997v210.258C3153.879,3969.19,3146.308,3980.941,3134.519,3986.291z"/>
								
									<ellipse style="fill:none;stroke:#53eafd;stroke-width:7;stroke-linecap:round;stroke-linejoin:round;stroke-miterlimit:10;" cx="2865.966" cy="3795.054" rx="31.467" ry="41.032"/>
							</g>
						</g>
					</g>
				</g>
			</g>
			<g>
				<g>
					<path style="fill:none;" d="M3822.612,3097.449c-11.48-167.332-156.438-293.673-323.769-282.19
						c-167.331,11.482-293.67,156.438-282.189,323.768l139.894,1210.746c210.94-97.841,402.343-230.682,566.723-391.098
						L3822.612,3097.449z"/>
					<path style="fill:none;stroke:#53eafd;stroke-width:7;stroke-linecap:round;stroke-linejoin:round;stroke-miterlimit:10;" d="
						M3253.125,3454.679l103.422,895.094c210.94-97.841,402.342-230.682,566.723-391.098l-100.659-861.226
						c-11.48-167.332-156.438-293.673-323.769-282.19c-167.331,11.482-293.67,156.438-282.189,323.768"/>
				</g>
				<g>
					
						<line style="fill:none;stroke:#53eafd;stroke-width:7;stroke-linecap:round;stroke-linejoin:round;stroke-miterlimit:10;" x1="3646.884" y1="2843.082" x2="3224.526" y2="3370.278"/>
					
						<line style="fill:none;stroke:#53eafd;stroke-width:7;stroke-linecap:round;stroke-linejoin:round;stroke-miterlimit:10;" x1="3827.542" y1="3139.632" x2="3291.51" y2="3808.721"/>
					
						<line style="fill:none;stroke:#53eafd;stroke-width:7;stroke-linecap:round;stroke-linejoin:round;stroke-miterlimit:10;" x1="3880.791" y1="3595.219" x2="3346.432" y2="4262.219"/>
					
						<line style="fill:none;stroke:#53eafd;stroke-width:7;stroke-linecap:round;stroke-linejoin:round;stroke-miterlimit:10;" x1="3444.15" y1="4306.576" x2="3335.952" y2="4171.522"/>
					
						<line style="fill:none;stroke:#53eafd;stroke-width:7;stroke-linecap:round;stroke-linejoin:round;stroke-miterlimit:10;" x1="3721.892" y1="4131.207" x2="3265.467" y2="3561.486"/>
					
						<line style="fill:none;stroke:#53eafd;stroke-width:7;stroke-linecap:round;stroke-linejoin:round;stroke-miterlimit:10;" x1="3909.839" y1="3843.755" x2="3238.996" y2="3006.392"/>
					
						<line style="fill:none;stroke:#53eafd;stroke-width:7;stroke-linecap:round;stroke-linejoin:round;stroke-miterlimit:10;" x1="3838.4" y1="3232.529" x2="3503.87" y2="2814.961"/>
				</g>
			</g>
		</g>
	</g>
</g>
</svg>
