<svg width="512" height="512" viewBox="0 0 512 512" fill="none" xmlns="http://www.w3.org/2000/svg">
<rect width="512" height="512" rx="50" fill="white"/>
<path d="M276.987 148.992V160.969L250.081 165.234L177.401 229.383L274.198 352.594L294.706 357.023V369H222.846L140.651 263.016L121.62 279.422V352.594L153.284 357.023V369H41.7213V357.023L69.94 352.594V165.234L41.7213 160.969V148.992H150.003V160.969L121.62 165.234V254.812L221.862 165.234L201.682 160.969V148.992H276.987ZM356.255 275.156V352.594L392.841 357.023V369H278.49V357.023L304.576 352.594V165.234L276.357 160.969V148.992H459.779V208.219H444.357L439.107 169.336C436.81 169.008 433.857 168.734 430.247 168.516C426.747 168.297 422.919 168.078 418.763 167.859C414.716 167.641 410.505 167.531 406.13 167.531C401.865 167.422 397.763 167.312 393.826 167.203C389.997 167.094 386.497 167.039 383.326 167.039C380.154 167.039 377.747 167.039 376.107 167.039H356.255V257.109H409.904L414.99 229.219H429.591V303.375H414.99L409.904 275.156H356.255Z" fill="black"/>
</svg>
