<svg width="256" height="256" viewBox="0 0 256 256" fill="none" xmlns="http://www.w3.org/2000/svg">
<path d="M197.842 106.084C197.734 106.109 197.629 106.15 197.525 106.207C195.589 107.269 194.145 108.036 193.191 108.508C190.366 109.907 187.446 111.017 184.429 111.838C182.655 112.322 180.594 112.651 178.778 112.964C177.451 113.194 176.028 113.391 174.508 113.553C171.664 113.859 168.825 114.164 165.989 114.468" stroke="#2DB1FA" stroke-width="0.0697927"/>
<path d="M165.986 114.438C163.863 114.581 161.747 114.767 159.639 114.995C155.783 115.41 153.845 115.619 153.826 115.621C141.645 116.822 129.466 118.05 117.289 119.305C113.021 119.744 108.841 120.45 104.75 121.422" stroke="#2BA9F7" stroke-width="0.0697927"/>
<path d="M69.2351 136.066C69.0345 136.001 68.8726 135.886 68.7496 135.721C68.6849 135.633 68.6957 135.555 68.782 135.487C69.8523 134.637 70.8697 133.725 71.8343 132.753C74.8412 129.721 77.5277 126.926 80.3826 124.122C84.3961 120.177 88.2414 116.359 91.9184 112.669C97.218 107.356 112.996 92.075 139.253 66.8259C140.688 65.446 142.236 63.9744 143.898 62.4109C149.191 57.4232 155.354 51.5724 162.386 44.8588C162.912 44.3566 163.667 43.6646 164.648 42.7826C165.402 42.1075 166.154 41.4091 166.905 40.6875" stroke="#34BEFC" stroke-width="0.0697927"/>
<path d="M79.5106 203.436L79.2064 202.23C79.1826 202.129 79.2053 202.039 79.2743 201.961C82.1896 198.714 84.7747 195.763 87.0296 193.109C88.3697 191.531 89.8079 189.962 91.3442 188.403C92.4059 187.323 94.0189 185.695 96.1832 183.52C103.119 176.542 109.118 170.685 114.183 165.948C115.918 164.326 117.451 162.844 118.782 161.502C122.727 157.525 126.734 153.508 130.804 149.453C132.703 147.559 134.226 146.064 135.374 144.969C139.441 141.084 143.011 137.626 146.081 134.594C147.709 132.99 149.93 131.005 151.652 129.281C155.689 125.238 159.748 121.216 163.828 117.213C164.609 116.449 165.329 115.524 165.987 114.438" stroke="#1873F5" stroke-width="0.0697927"/>
<path d="M197.837 106.07C197.729 106.096 197.624 106.137 197.52 106.194C195.585 107.255 194.14 108.022 193.186 108.495C190.361 109.894 187.441 111.003 184.424 111.824C182.65 112.308 180.589 112.637 178.773 112.951C177.446 113.181 176.023 113.377 174.503 113.539C171.659 113.845 168.82 114.15 165.984 114.454C163.861 114.598 161.745 114.783 159.637 115.011C155.781 115.427 153.843 115.636 153.824 115.638C141.643 116.838 129.464 118.066 117.287 119.322C113.019 119.76 108.839 120.466 104.748 121.439C103.55 121.135 102.32 121.133 101.058 121.433C98.6197 122.009 96.1964 122.639 93.7883 123.325C87.3083 125.165 81.3763 127.791 75.9925 131.202C74.0289 132.447 71.7761 134.069 69.2342 136.067C69.0335 136.001 68.8716 135.886 68.7486 135.722C68.6839 135.633 68.6947 135.555 68.781 135.488C69.8513 134.637 70.8687 133.726 71.8333 132.753C74.8402 129.721 77.5268 126.927 80.3816 124.123C84.3952 120.177 88.2404 116.359 91.9174 112.669C97.2171 107.356 112.995 92.0755 139.252 66.8264C140.687 65.4465 142.235 63.9749 143.897 62.4115C149.19 57.4237 155.353 51.573 162.385 44.8593C162.912 44.3571 163.666 43.6651 164.648 42.7831C165.401 42.108 166.153 41.4096 166.904 40.688C167.447 40.6142 168.025 40.5446 168.635 40.4791C171.233 40.1943 174.23 39.8631 177.627 39.4854C181.63 39.0381 186.503 37.9209 192.247 36.1338C197.696 34.4375 202.999 31.817 208.156 28.2724C213.73 24.4408 218.398 19.8328 222.162 14.4484C222.979 13.2774 223.643 12.0969 224.152 10.9069C224.254 10.6706 224.353 10.6717 224.45 10.9101C224.459 10.9333 224.46 11.0124 224.453 11.1474C224.401 12.426 224.373 13.3639 224.369 13.961C224.229 30.5764 224.118 40.7302 224.036 44.4225C223.889 50.9315 223.518 56.4426 222.922 60.9556C222.268 65.9076 221.168 70.755 219.621 75.4981C218.173 79.9352 216.535 83.772 214.707 87.0086C213.434 89.264 211.833 91.6704 209.904 94.2276C208.721 95.7973 207.324 97.4019 205.712 99.0413C203.293 101.504 200.75 103.752 198.083 105.786C197.982 105.862 197.9 105.956 197.837 106.07Z" fill="#A2F4FD"/>
<path d="M166.906 40.6875C166.155 41.4091 165.403 42.1075 164.65 42.7826C163.668 43.6646 162.914 44.3566 162.387 44.8588C155.355 51.5724 149.192 57.4232 143.899 62.4109C142.237 63.9744 140.689 65.446 139.254 66.8259C112.998 92.075 97.2194 107.356 91.9197 112.669C88.2427 116.359 84.3975 120.177 80.3839 124.122C77.5291 126.926 74.8425 129.721 71.8356 132.753C70.871 133.725 69.8536 134.637 68.7833 135.487C68.697 135.555 68.6862 135.633 68.751 135.721C68.874 135.886 69.0358 136.001 69.2365 136.066C67.6181 137.467 66.0806 138.943 64.6241 140.494C59.1086 146.368 54.5739 152.824 51.02 159.863C49.8741 162.131 48.5147 165.18 46.9416 169.009C45.7246 171.98 44.3047 175.972 42.6821 180.985C41.2255 185.491 38.703 193.519 35.1145 205.066C33.5738 210.018 32.4474 213.763 31.7353 216.301C31.7029 216.415 31.6792 216.414 31.6641 216.298C31.5821 215.623 31.5497 214.94 31.567 214.25C31.6663 209.931 31.7127 205.501 31.7062 200.958C31.6803 182.676 31.7137 168.343 31.8065 157.961C31.8238 155.804 31.8313 153.695 31.8292 151.634C31.8033 136.27 31.7903 128.568 31.7903 128.528C31.8011 127.633 31.8313 125.861 31.881 123.211C31.9155 121.392 32.0137 119.619 32.1755 117.891C33.5975 102.556 38.6199 88.7339 47.2427 76.4248C53.8435 67 62.2979 59.6027 72.6059 54.233C76.8267 52.0345 81.2449 50.3086 85.8605 49.0553C89.6453 48.0278 93.0871 47.3073 96.1858 46.8937C96.7468 46.8199 98.4353 46.6237 101.251 46.3051C103.202 46.0857 104.889 45.919 106.314 45.805C110.036 45.5054 114.622 45.0877 120.073 44.5518C121.825 44.3788 128.901 43.808 141.3 42.8396C149.81 42.175 158.346 41.4576 166.906 40.6875Z" fill="#00B8DB"/>
<path d="M197.831 106.084C197.761 106.734 197.743 107.179 197.775 107.42C198.393 111.806 198.56 116.21 198.277 120.633C197.859 127.146 196.743 133.446 194.93 139.533C192.988 146.053 190.036 152.214 186.075 158.016C184.978 159.624 183.495 161.465 181.624 163.542C175.131 170.749 167.163 175.361 157.721 177.378C156.191 177.705 154.055 178.003 151.315 178.271C139.473 179.431 132.187 180.147 129.457 180.42C127.578 180.607 126.09 180.793 124.994 180.977C124.005 181.141 123.017 181.296 122.029 181.442C120.736 181.632 119.747 181.796 119.061 181.936C103.561 185.041 90.3742 192.218 79.5009 203.466L79.1966 202.26C79.1729 202.159 79.1955 202.069 79.2646 201.991C82.1798 198.744 84.7649 195.793 87.0199 193.139C88.3599 191.561 89.7981 189.992 91.3345 188.433C92.3961 187.353 94.0091 185.725 96.1734 183.55C103.109 176.572 109.109 170.715 114.173 165.979C115.908 164.356 117.441 162.874 118.773 161.532C122.717 157.555 126.724 153.539 130.794 149.483C132.693 147.589 134.216 146.094 135.364 144.999C139.432 141.115 143.001 137.656 146.071 134.624C147.699 133.02 149.92 131.036 151.642 129.311C155.679 125.268 159.738 121.246 163.819 117.243C164.6 116.479 165.319 115.554 165.978 114.468C168.813 114.164 171.653 113.859 174.497 113.553C176.016 113.391 177.439 113.194 178.766 112.964C180.582 112.651 182.644 112.322 184.417 111.838C187.434 111.017 190.355 109.907 193.179 108.508C194.133 108.036 195.578 107.269 197.513 106.207C197.617 106.15 197.723 106.109 197.831 106.084Z" fill="#00B8DB"/>
<path d="M163.822 117.235C164.603 116.471 165.322 115.546 165.981 114.459C163.857 114.602 161.741 114.788 159.633 115.016L153.82 115.643C141.639 116.843 129.46 118.071 117.283 119.327C113.015 119.765 108.835 120.471 104.744 121.444C103.98 121.672 103.235 121.874 102.508 122.051C101.649 122.262 100.909 122.481 100.287 122.707C93.805 125.061 87.8451 128.088 82.4073 131.786C77.5565 135.086 72.9894 139.185 68.7061 144.082C67.3876 145.588 66.0918 147.274 64.8187 149.139C62.0027 153.256 59.9657 156.7 58.7077 159.472C56.4528 164.441 54.9088 168.663 54.0759 172.138C53.0056 176.603 52.3421 180.096 52.0853 182.617C51.8026 185.389 51.658 187.837 51.6516 189.959C51.6106 200.201 51.617 214.881 51.671 234.001C51.6818 237.75 51.6947 241.496 51.7098 245.236C53.3239 242.034 69.7149 215.862 72.3927 212.031C74.3909 209.17 76.7613 206.312 79.5039 203.457L79.1997 202.252C79.1759 202.15 79.1986 202.061 79.2676 201.983C82.1829 198.735 84.768 195.785 87.0229 193.13C88.3629 191.552 89.8011 189.984 91.3375 188.424C92.3992 187.344 94.0122 185.716 96.1765 183.541C103.112 176.564 109.112 170.707 114.176 165.97C115.911 164.347 117.444 162.865 118.776 161.523C122.72 157.546 126.727 153.53 130.797 149.475C132.696 147.58 134.219 146.085 135.367 144.99C139.435 141.106 143.004 137.648 146.074 134.616C147.703 133.011 149.923 131.027 151.645 129.302C155.682 125.26 159.741 121.237 163.822 117.235Z" fill="#007595"/>
</svg>
